<?xml version="1.0" encoding="UTF-8"?>
<svg version="1.1" xmlns="http://www.w3.org/2000/svg" width="328" height="312">
<path d="M0 0 C108.24 0 216.48 0 328 0 C328 102.96 328 205.92 328 312 C219.76 312 111.52 312 0 312 C0 209.04 0 106.08 0 0 Z " fill="#FEFEFE" transform="translate(0,0)"/>
<path d="M0 0 C0 0.33 0 0.66 0 1 C-9.24 1.33 -18.48 1.66 -28 2 C-23.5450048 5.89303992 -23.5450048 5.89303992 -19.05541992 9.74584961 C-18.21394409 10.50393921 -18.21394409 10.50393921 -17.35546875 11.27734375 C-16.78465576 11.77484131 -16.21384277 12.27233887 -15.62573242 12.78491211 C-9.93934682 20.53270856 -10.56466956 29.98249685 -10.59594727 39.16748047 C-10.59023608 40.68789163 -10.58326894 42.20829852 -10.57514954 43.72869873 C-10.5572844 47.8362738 -10.55837405 51.94363446 -10.56409192 56.05123663 C-10.5671938 59.49036114 -10.56108017 62.92944506 -10.55505317 66.36856377 C-10.54103103 74.4874431 -10.54254961 82.60621715 -10.55395508 90.72509766 C-10.56543083 99.07817527 -10.55136456 107.43093161 -10.5245586 115.7839669 C-10.50234757 122.97664033 -10.49577646 130.16921331 -10.50163502 137.36191857 C-10.50499329 141.64852161 -10.50266529 145.93491883 -10.48538399 150.22149277 C-10.46983068 154.25510247 -10.47396234 158.28823917 -10.49268913 162.32183075 C-10.49635213 163.79431956 -10.49333402 165.26684407 -10.48280334 166.73929977 C-10.42391707 175.66055373 -10.47896651 185.34178425 -16.33182621 192.66682243 C-17.76171875 194.0078125 -17.76171875 194.0078125 -20.6875 196.125 C-21.66074219 196.84945312 -22.63398438 197.57390625 -23.63671875 198.3203125 C-24.80654297 199.15175781 -24.80654297 199.15175781 -26 200 C-26.33 200.33 -26.66 200.66 -27 201 C-28.41570123 201.08651611 -29.835595 201.10704904 -31.25390625 201.09765625 C-32.10791016 201.09443359 -32.96191406 201.09121094 -33.84179688 201.08789062 C-34.73962891 201.07951172 -35.63746094 201.07113281 -36.5625 201.0625 C-37.46419922 201.05798828 -38.36589844 201.05347656 -39.29492188 201.04882812 C-41.53001314 201.03700225 -43.76497437 201.0205222 -46 201 C-45.47599609 199.67935547 -45.47599609 199.67935547 -44.94140625 198.33203125 C-44.48636719 197.17058594 -44.03132813 196.00914062 -43.5625 194.8125 C-43.11003906 193.66394531 -42.65757813 192.51539063 -42.19140625 191.33203125 C-39.97999711 185.14733618 -39.79960588 179.3961621 -39.68359375 172.88671875 C-39.66494263 172.02679321 -39.6462915 171.16686768 -39.6270752 170.28088379 C-39.55902115 167.08318898 -39.49871733 163.885333 -39.4375 160.6875 C-39.293125 153.530625 -39.14875 146.37375 -39 139 C-57.81 139 -76.62 139 -96 139 C-91.7343356 161.39473808 -85.86303524 181.80476624 -72 200 C-72 200.33 -72 200.66 -72 201 C-91.47 201 -110.94 201 -131 201 C-148.23153794 155.04923216 -154.54229504 100.4887671 -134.08203125 54.5703125 C-127.98857642 41.58114898 -119.90394916 30.38526257 -110 20 C-109.48566406 19.41089844 -108.97132812 18.82179688 -108.44140625 18.21484375 C-98.52580817 7.32056326 -84.68752026 -0.05162105 -71 -5 C-69.85402344 -5.433125 -68.70804687 -5.86625 -67.52734375 -6.3125 C-46.24632713 -12.98163252 -19.14413513 -11.42787658 0 0 Z " fill="#1C74E4" transform="translate(170,34)"/>
<path d="M0 0 C18.48 0 36.96 0 56 0 C55.34 1.65 54.68 3.3 54 5 C50.98922306 12.90874765 50.55785738 20.20710194 50.56762695 28.61962891 C50.55859123 29.96099743 50.54825963 31.30235775 50.53674316 32.64370728 C50.5093591 36.25459255 50.49991423 39.86532037 50.49388909 43.47629595 C50.48445654 47.2613085 50.45824953 51.04620567 50.43388367 54.83114624 C50.39034844 61.98481552 50.36172205 69.13846224 50.33856028 76.29222333 C50.31143869 84.4423066 50.26753172 92.59227304 50.22227156 100.74227262 C50.12961134 117.49478902 50.05784575 134.24732642 50 151 C57.72918345 150.96168091 65.45789375 150.90194587 73.18667889 150.81609726 C76.77689423 150.77686511 80.36687321 150.74455971 83.95727539 150.72900391 C87.43299599 150.71367473 90.90806568 150.67895051 94.38349342 150.63169098 C96.33113756 150.60999418 98.27896628 150.60754034 100.22673035 150.60565186 C112.94462533 150.40014277 124.38335923 147.07776052 135 140 C135 155.84 135 171.68 135 188 C90.45 188 45.9 188 0 188 C1.32 184.7 2.64 181.4 4 178 C4.98217688 173.74753961 5.12913641 169.70533615 5.14044189 165.34747314 C5.14341302 164.70420098 5.14638414 164.06092882 5.1494453 163.39816356 C5.1580718 161.25663986 5.15963537 159.11517246 5.16113281 156.97363281 C5.16576526 155.43234133 5.1707905 153.89105099 5.17617798 152.34976196 C5.18926252 148.17189353 5.19573917 143.99404114 5.20018864 139.81615543 C5.20312564 137.20255635 5.20723161 134.58896158 5.21169281 131.97536469 C5.22535712 123.78799055 5.23502909 115.60062637 5.2388947 107.41324162 C5.24337349 97.98061416 5.26091753 88.54813175 5.2898953 79.11554837 C5.3115501 71.81171921 5.321601 64.50793076 5.32293582 57.20406985 C5.32398109 52.84761134 5.32982958 48.49128936 5.34775543 44.13486481 C5.36430208 40.03408586 5.36635985 35.93354515 5.35761642 31.8327446 C5.35684958 30.33402999 5.36114195 28.83530222 5.37107468 27.33662033 C5.43356963 17.31341622 4.52192106 9.04384212 0 0 Z " fill="#1B74E4" transform="translate(160,42)"/>
<path d="M0 0 C0 20.79 0 41.58 0 63 C-18.81 63 -37.62 63 -57 63 C-56.31236531 56.12365311 -55.61915485 50.60782326 -53.4375 44.25 C-53.17501465 43.47922119 -52.9125293 42.70844238 -52.64208984 41.91430664 C-47.16922845 26.5391554 -38.34250737 13.31606226 -24 5 C-15.61897875 1.03828162 -9.58880833 0 0 0 Z " fill="#FDFEFE" transform="translate(131,69)"/>
<path d="M0 0 C5.94 0 11.88 0 18 0 C18.639375 2.35125 19.27875 4.7025 19.9375 7.125 C20.13722412 7.85348145 20.33694824 8.58196289 20.54272461 9.33251953 C21.58450345 13.2025836 22.41342107 17.03596131 23 21 C23.66 21 24.32 21 25 21 C25.1340625 20.15050781 25.268125 19.30101562 25.40625 18.42578125 C26.00296997 14.98286403 26.72144741 11.59366759 27.5 8.1875 C27.7578125 7.04667969 28.015625 5.90585937 28.28125 4.73046875 C29 2 29 2 30 1 C35.61 1 41.22 1 47 1 C47 13.87 47 26.74 47 40 C43.04 40 39.08 40 35 40 C34.67 33.73 34.34 27.46 34 21 C32.3974387 26.50402952 32.3974387 26.50402952 30.79907227 32.00927734 C30.59854248 32.6945752 30.3980127 33.37987305 30.19140625 34.0859375 C29.98717041 34.7876709 29.78293457 35.4894043 29.57250977 36.21240234 C29 38 29 38 28 40 C24.7 40 21.4 40 18 40 C17.35334337 37.75023648 16.70770477 35.50018033 16.0625 33.25 C15.70285156 31.99703125 15.34320313 30.7440625 14.97265625 29.453125 C14.27588914 26.97946183 13.62329739 24.49318957 13 22 C12.67 27.94 12.34 33.88 12 40 C8.04 40 4.08 40 0 40 C0 26.8 0 13.6 0 0 Z " fill="#050505" transform="translate(35,252)"/>
<path d="M0 0 C4.29 0 8.58 0 13 0 C13 4.95 13 9.9 13 15 C17.62 15 22.24 15 27 15 C27 10.38 27 5.76 27 1 C30.96 1 34.92 1 39 1 C39 13.87 39 26.74 39 40 C35.04 40 31.08 40 27 40 C27 35.05 27 30.1 27 25 C22.38 25 17.76 25 13 25 C13 29.95 13 34.9 13 40 C8.71 40 4.42 40 0 40 C0 26.8 0 13.6 0 0 Z " fill="#030303" transform="translate(135,252)"/>
<path d="M0 0 C4.29 0 8.58 0 13 0 C13.04898438 1.91425781 13.09796875 3.82851562 13.1484375 5.80078125 C13.22346136 8.30470244 13.29900935 10.80860796 13.375 13.3125 C13.4059375 14.57513672 13.436875 15.83777344 13.46875 17.13867188 C13.50742188 18.34716797 13.54609375 19.55566406 13.5859375 20.80078125 C13.6173584 21.91622314 13.6487793 23.03166504 13.68115234 24.1809082 C13.805249 27.20368786 13.805249 27.20368786 16 30 C20.57309829 30.56774819 20.57309829 30.56774819 24.69067383 28.86401367 C26.57511658 26.18123902 26.43527129 24.05744312 26.51171875 20.80078125 C26.54716797 19.59228516 26.58261719 18.38378906 26.61914062 17.13867188 C26.64169922 15.87603516 26.66425781 14.61339844 26.6875 13.3125 C26.72166016 12.03826172 26.75582031 10.76402344 26.79101562 9.45117188 C26.87360195 6.30109357 26.93847391 3.15056001 27 0 C31.29 0 35.58 0 40 0 C40.10830443 4.50065073 40.18748158 8.99867357 40.25 13.5 C40.30027344 15.40265625 40.30027344 15.40265625 40.3515625 17.34375 C40.42814857 24.6960131 40.23020665 29.86509297 36 36 C33.96484375 37.62109375 33.96484375 37.62109375 31.9375 38.4375 C31.26589844 38.72496094 30.59429687 39.01242187 29.90234375 39.30859375 C22.64989726 41.94449319 15.71490244 42.16233817 8.5625 39 C4.61009563 37.12472412 2.5808938 34.5645421 0.74780273 30.5859375 C-0.85848152 25.03133 -0.40134468 19.22781412 -0.25 13.5 C-0.23195312 12.200625 -0.21390625 10.90125 -0.1953125 9.5625 C-0.14843279 6.37467988 -0.07669834 3.18724209 0 0 Z " fill="#090909" transform="translate(221,252)"/>
<path d="M0 0 C1.39456452 0.00667256 2.78911118 0.01863093 4.18359375 0.03515625 C4.89451172 0.03966797 5.60542969 0.04417969 6.33789062 0.04882812 C8.09899388 0.06064761 9.86005411 0.07858362 11.62109375 0.09765625 C13.61903462 5.47129735 15.6127564 10.8464772 17.60253906 16.22314453 C18.28040925 18.05300408 18.95944197 19.8824334 19.63964844 21.71142578 C20.61567326 24.33644882 21.58754286 26.96297737 22.55859375 29.58984375 C22.86482666 30.41072479 23.17105957 31.23160583 23.48657227 32.07736206 C25.62109375 37.86991284 25.62109375 37.86991284 25.62109375 40.09765625 C21.00109375 40.09765625 16.38109375 40.09765625 11.62109375 40.09765625 C11.29109375 38.11765625 10.96109375 36.13765625 10.62109375 34.09765625 C6.00109375 34.09765625 1.38109375 34.09765625 -3.37890625 34.09765625 C-3.87390625 36.57265625 -3.87390625 36.57265625 -4.37890625 39.09765625 C-5.37890625 40.09765625 -5.37890625 40.09765625 -8.1015625 40.1953125 C-9.20371094 40.18371094 -10.30585937 40.17210937 -11.44140625 40.16015625 C-12.54613281 40.15113281 -13.65085937 40.14210938 -14.7890625 40.1328125 C-16.07103516 40.11541016 -16.07103516 40.11541016 -17.37890625 40.09765625 C-16.74055051 35.26351967 -15.37426857 30.8812877 -13.69140625 26.328125 C-13.42884033 25.60651688 -13.16627441 24.88490875 -12.89575195 24.14143372 C-12.34346759 22.62699081 -11.78865624 21.11346728 -11.23144531 19.60083008 C-10.37594923 17.27712437 -9.52918192 14.950374 -8.68359375 12.62304688 C-8.14503914 11.14955385 -7.6059941 9.67623997 -7.06640625 8.203125 C-6.68512573 7.15634834 -6.68512573 7.15634834 -6.29614258 6.08842468 C-4.09008832 0.11821065 -4.09008832 0.11821065 0 0 Z " fill="#060606" transform="translate(104.37890625,251.90234375)"/>
<path d="M0 0 C11.88 0 23.76 0 36 0 C36 6.74742661 36 6.74742661 33.8046875 9.55078125 C33.33844971 10.16300537 32.87221191 10.77522949 32.3918457 11.40600586 C31.89128662 12.03514893 31.39072754 12.66429199 30.875 13.3125 C29.86443799 14.63170497 28.85531653 15.95201474 27.84765625 17.2734375 C27.35797363 17.90862305 26.86829102 18.54380859 26.36376953 19.19824219 C23.72805603 22.68044155 21.37662796 26.33870828 19 30 C24.94 30 30.88 30 37 30 C37 33.3 37 36.6 37 40 C24.13 40 11.26 40 -2 40 C-2 34.42154567 -2 34.42154567 0.8125 31.1875 C4.46161462 26.77252182 7.71559249 22.16702492 10.9375 17.4375 C11.43419189 16.71006592 11.93088379 15.98263184 12.44262695 15.2331543 C13.63072849 13.49034241 14.81569978 11.74539724 16 10 C10.72 10 5.44 10 0 10 C0 6.7 0 3.4 0 0 Z " fill="#090909" transform="translate(268,252)"/>
<path d="M0 0 C10.56 0 21.12 0 32 0 C32 3.3 32 6.6 32 10 C25.4 10 18.8 10 12 10 C12 12.31 12 14.62 12 17 C17.61 17 23.22 17 29 17 C29 19.97 29 22.94 29 26 C23.72 26 18.44 26 13 26 C13 30.62 13 35.24 13 40 C8.71 40 4.42 40 0 40 C0 26.8 0 13.6 0 0 Z " fill="#080808" transform="translate(183,252)"/>
<path d="M0 0 C0.66 0 1.32 0 2 0 C2.50692692 1.5811292 3.00526443 3.16501383 3.5 4.75 C3.7784375 5.63171875 4.056875 6.5134375 4.34375 7.421875 C5 10 5 10 5 14 C2.36 14 -0.28 14 -3 14 C-2.40380045 9.13103697 -1.43023178 4.67209049 0 0 Z " fill="#DADADA" transform="translate(107,264)"/>
<path d="M0 0 C0.33 0 0.66 0 1 0 C1 7.59 1 15.18 1 23 C0.67 23 0.34 23 0 23 C-0.06058594 22.10796875 -0.12117188 21.2159375 -0.18359375 20.296875 C-0.26738281 19.12640625 -0.35117188 17.9559375 -0.4375 16.75 C-0.51871094 15.58984375 -0.59992188 14.4296875 -0.68359375 13.234375 C-0.89725234 10.1422399 -0.89725234 10.1422399 -1.59375 7.78125 C-2.24818175 4.91181849 -1.03225227 2.67171175 0 0 Z " fill="#D1D1D1" transform="translate(69,269)"/>
</svg>
